<svg width="512" height="512" viewBox="0 0 512 512" fill="none" xmlns="http://www.w3.org/2000/svg">
  <defs>
    <linearGradient id="blueGrad" x1="120" y1="120" x2="380" y2="380" gradientUnits="userSpaceOnUse">
      <stop offset="0%" stop-color="#00F2FE"/>
      <stop offset="100%" stop-color="#4FACFE"/>
    </linearGradient>
    <linearGradient id="purpleGrad" x1="400" y1="100" x2="150" y2="400" gradientUnits="userSpaceOnUse">
      <stop offset="0%" stop-color="#9627FF"/>
      <stop offset="100%" stop-color="#E0C3FC"/>
    </linearGradient>
    <linearGradient id="greenGrad" x1="100" y1="400" x2="400" y2="200" gradientUnits="userSpaceOnUse">
      <stop offset="0%" stop-color="#43E97B"/>
      <stop offset="100%" stop-color="#38F9D7"/>
    </linearGradient>
    <filter id="softGlow" x="-20%" y="-20%" width="140%" height="140%">
      <feGaussianBlur stdDeviation="5" result="blur"/>
      <feComposite in="SourceGraphic" in2="blur" operator="over"/>
    </filter>
  </defs>

  <g filter="url(#softGlow)">
    <path d="M256 120C340 120 400 180 400 256C400 332 320 400 256 400C192 400 140 340 140 280C140 220 190 120 256 120Z" 
          stroke="url(#purpleGrad)" stroke-width="28" stroke-linecap="round" fill="none" opacity="0.9"/>
    
    <path d="M180 180C120 240 120 320 180 380C240 440 340 400 380 320C420 240 320 140 256 140C192 140 180 180 180 180Z" 
          stroke="url(#blueGrad)" stroke-width="28" stroke-linecap="round" fill="none" opacity="0.9"/>
          
    <path d="M340 180C400 240 400 320 340 380C280 440 180 400 140 320C100 240 200 140 256 140" 
          stroke="url(#greenGrad)" stroke-width="28" stroke-linecap="round" fill="none" opacity="0.9"/>
  </g>

  <rect x="410" y="180" width="12" height="12" rx="2" fill="#43E97B" />
  <rect x="430" y="205" width="8" height="8" rx="1.5" fill="#38F9D7" />
  <rect x="80" y="310" width="10" height="10" rx="2" fill="#9627FF" />
  <rect x="105" y="335" width="6" height="6" rx="1" fill="#4FACFE" />
</svg>